<svg width="8" height="8" viewBox="0 0 8 8" fill="none" xmlns="http://www.w3.org/2000/svg">
<path fill-rule="evenodd" clip-rule="evenodd" d="M7.58362 0.422071C7.36177 0.200228 7.00341 0.200228 6.78157 0.422071L4 3.19795L1.21843 0.416382C0.996587 0.194539 0.638225 0.194539 0.416382 0.416382C0.194539 0.638225 0.194539 0.996587 0.416382 1.21843L3.19795 4L0.416382 6.78157C0.194539 7.00341 0.194539 7.36177 0.416382 7.58362C0.638225 7.80546 0.996587 7.80546 1.21843 7.58362L4 4.80205L6.78157 7.58362C7.00341 7.80546 7.36177 7.80546 7.58362 7.58362C7.80546 7.36177 7.80546 7.00341 7.58362 6.78157L4.80205 4L7.58362 1.21843C7.79977 1.00228 7.79977 0.638225 7.58362 0.422071Z" fill="#3C4043"/>
</svg>
